<?xml version="1.0" standalone="no"?>
<!DOCTYPE svg PUBLIC "-//W3C//DTD SVG 20010904//EN"
 "http://www.w3.org/TR/2001/REC-SVG-20010904/DTD/svg10.dtd">
<svg version="1.0" xmlns="http://www.w3.org/2000/svg"
 width="512.000000pt" height="512.000000pt" viewBox="0 0 512.000000 512.000000"
 preserveAspectRatio="xMidYMid meet">
<metadata>
Created by potrace 1.11, written by Peter Selinger 2001-2013
</metadata>
<g transform="translate(0.000000,512.000000) scale(0.100000,-0.100000)"
fill="#000000" stroke="none">
<path d="M3075 4221 c-16 -10 -43 -31 -60 -46 -73 -66 -250 -167 -314 -180 -9
-2 -36 -8 -60 -13 -53 -13 -160 -9 -221 8 -75 20 -170 72 -271 148 -53 39
-108 76 -123 82 -35 13 -91 13 -136 0 -19 -6 -48 -13 -65 -16 -50 -9 -251 -60
-635 -163 -290 -77 -352 -97 -377 -119 -22 -19 -24 -29 -20 -70 2 -26 7 -57
10 -68 3 -12 24 -89 46 -172 22 -84 43 -162 45 -174 13 -59 60 -216 72 -240
20 -38 50 -38 189 -1 66 18 132 35 147 38 15 3 39 10 53 15 53 20 52 23 52
-165 0 -113 -4 -172 -10 -168 -6 4 -7 1 -1 -8 5 -8 9 -410 10 -949 1 -923 1
-936 22 -982 15 -36 30 -52 62 -68 l43 -22 997 0 c548 0 1012 3 1031 7 56 11
107 65 114 122 3 15 5 529 5 1141 0 611 4 1112 8 1112 4 0 39 -9 77 -19 194
-54 306 -81 330 -81 44 0 61 16 78 77 17 55 104 381 111 413 2 8 9 35 16 60
30 111 34 146 21 179 -15 35 -46 49 -201 91 -63 17 -137 38 -165 45 -42 13
-438 118 -485 130 -114 28 -285 65 -320 70 -34 4 -52 1 -75 -14z"/>
</g>
</svg>
